<?xml version="1.0" encoding="UTF-8"?>
<svg xmlns="http://www.w3.org/2000/svg" width="922" height="637" viewBox="140 35 922 637">
  <!-- culinarial: hat + outlined wordmark (tight viewBox) -->
  <circle cx="510.00" cy="220.00" r="70.00" fill="#000"/>
  <circle cx="600.00" cy="185.00" r="90.00" fill="#000"/>
  <circle cx="690.00" cy="220.00" r="70.00" fill="#000"/>
  <rect x="450.00" y="255.00" width="300.00" height="110.00" rx="55.00" ry="55.00" fill="#000"/>
  <g transform="translate(192.18,610.00) scale(0.083008, -0.083008)" fill="#000">
    <path d="M1053 319Q1014 149 903.0 60.0Q792 -29 616 -29Q384 -29 243.0 124.5Q102 278 102 532Q102 787 243.0 939.5Q384 1092 616 1092Q717 1092 817.0 1068.5Q917 1045 1018 997V725H911Q890 865 819.5 929.0Q749 993 618 993Q469 993 393.0 877.5Q317 762 317 532Q317 302 392.5 186.0Q468 70 618 70Q737 70 808.0 132.0Q879 194 905 319Z" transform="translate(0.00,0)"/>
    <path d="M725 1063H1069V106H1243V0H885V188Q834 82 753.0 26.5Q672 -29 565 -29Q388 -29 304.5 71.5Q221 172 221 387V956H55V1063H406V444Q406 250 453.5 178.0Q501 106 623 106Q751 106 818.0 200.0Q885 294 885 473V956H725Z" transform="translate(1147.00,0)"/>
    <path d="M420 106H594V0H59V106H236V1450H59V1556H420Z" transform="translate(2466.00,0)"/>
    <path d="M199 1393Q199 1439 232.5 1473.0Q266 1507 313 1507Q359 1507 392.5 1473.0Q426 1439 426 1393Q426 1346 393.0 1313.0Q360 1280 313 1280Q266 1280 232.5 1313.0Q199 1346 199 1393ZM434 106H608V0H74V106H250V956H74V1063H434Z" transform="translate(3121.00,0)"/>
    <path d="M84 0V106H250V956H74V1063H434V874Q485 982 566.5 1037.0Q648 1092 756 1092Q932 1092 1015.0 991.0Q1098 890 1098 676V106H1262V0H754V106H913V618Q913 813 865.0 885.5Q817 958 696 958Q568 958 501.0 864.5Q434 771 434 592V106H594V0Z" transform="translate(3776.00,0)"/>
    <path d="M815 334V559H578Q441 559 374.0 500.0Q307 441 307 319Q307 208 375.0 143.0Q443 78 559 78Q674 78 744.5 149.0Q815 220 815 334ZM999 664V106H1163V0H815V115Q754 41 674.0 6.0Q594 -29 487 -29Q310 -29 206.0 65.0Q102 159 102 319Q102 484 221.0 575.0Q340 666 557 666H815V739Q815 860 741.5 926.5Q668 993 535 993Q425 993 360.0 943.0Q295 893 279 795H184V1010Q280 1051 370.5 1071.5Q461 1092 547 1092Q768 1092 883.5 982.5Q999 873 999 664Z" transform="translate(5095.00,0)"/>
    <path d="M979 1065V799H873Q868 878 829.0 917.0Q790 956 715 956Q579 956 506.5 862.0Q434 768 434 592V106H647V0H84V106H250V958H74V1063H434V874Q488 985 573.0 1038.5Q658 1092 780 1092Q825 1092 874.5 1085.0Q924 1078 979 1065Z" transform="translate(6316.00,0)"/>
    <path d="M199 1393Q199 1439 232.5 1473.0Q266 1507 313 1507Q359 1507 392.5 1473.0Q426 1439 426 1393Q426 1346 393.0 1313.0Q360 1280 313 1280Q266 1280 232.5 1313.0Q199 1346 199 1393ZM434 106H608V0H74V106H250V956H74V1063H434Z" transform="translate(7295.00,0)"/>
    <path d="M815 334V559H578Q441 559 374.0 500.0Q307 441 307 319Q307 208 375.0 143.0Q443 78 559 78Q674 78 744.5 149.0Q815 220 815 334ZM999 664V106H1163V0H815V115Q754 41 674.0 6.0Q594 -29 487 -29Q310 -29 206.0 65.0Q102 159 102 319Q102 484 221.0 575.0Q340 666 557 666H815V739Q815 860 741.5 926.5Q668 993 535 993Q425 993 360.0 943.0Q295 893 279 795H184V1010Q280 1051 370.5 1071.5Q461 1092 547 1092Q768 1092 883.5 982.5Q999 873 999 664Z" transform="translate(7950.00,0)"/>
    <path d="M420 106H594V0H59V106H236V1450H59V1556H420Z" transform="translate(9171.00,0)"/>
  </g>
</svg>
